<svg xmlns="http://www.w3.org/2000/svg" viewBox="0 0 512 512" width="512" height="512">
    <rect width="100%" height="100%" fill="#0b0f14"/>
    <circle cx="239.4" cy="248.9" r="1.11" fill="#ffe082" fill-opacity="0.57"/><circle cx="462.7" cy="83.8" r="1.20" fill="#ffd54f" fill-opacity="0.49"/><circle cx="214.0" cy="434.1" r="0.74" fill="#ffe082" fill-opacity="0.58"/><circle cx="224.8" cy="487.8" r="0.75" fill="#ffe082" fill-opacity="0.56"/><circle cx="255.0" cy="1.6" r="0.70" fill="#ffe082" fill-opacity="0.48"/><circle cx="332.2" cy="63.2" r="0.50" fill="#ffd54f" fill-opacity="0.45"/><circle cx="78.2" cy="398.9" r="0.50" fill="#ffd54f" fill-opacity="0.48"/><circle cx="414.5" cy="485.5" r="1.15" fill="#ffe082" fill-opacity="0.46"/><circle cx="387.4" cy="126.5" r="1.56" fill="#ffb300" fill-opacity="0.50"/><circle cx="334.1" cy="207.7" r="0.25" fill="#ffe082" fill-opacity="0.57"/><circle cx="338.6" cy="368.1" r="0.84" fill="#ffb300" fill-opacity="0.57"/><circle cx="275.7" cy="139.9" r="1.83" fill="#ffe082" fill-opacity="0.57"/><circle cx="195.7" cy="486.2" r="0.69" fill="#ffb300" fill-opacity="0.54"/><circle cx="471.2" cy="31.0" r="1.34" fill="#ffd54f" fill-opacity="0.59"/><circle cx="383.1" cy="15.3" r="0.27" fill="#ffe082" fill-opacity="0.56"/><circle cx="45.0" cy="213.0" r="1.01" fill="#ffb300" fill-opacity="0.60"/><circle cx="41.3" cy="290.6" r="0.59" fill="#ffe082" fill-opacity="0.57"/><circle cx="405.3" cy="418.3" r="1.66" fill="#ffd54f" fill-opacity="0.59"/><circle cx="460.7" cy="441.1" r="0.46" fill="#ffb300" fill-opacity="0.58"/><circle cx="337.7" cy="505.4" r="1.52" fill="#ffe082" fill-opacity="0.58"/><circle cx="190.3" cy="388.1" r="1.96" fill="#ffb300" fill-opacity="0.50"/><circle cx="455.5" cy="127.4" r="0.96" fill="#ffe082" fill-opacity="0.58"/><circle cx="131.3" cy="360.9" r="1.78" fill="#ffe082" fill-opacity="0.52"/><circle cx="510.2" cy="9.2" r="1.68" fill="#ffd54f" fill-opacity="0.52"/><circle cx="53.2" cy="392.5" r="1.70" fill="#ffe082" fill-opacity="0.46"/><circle cx="498.0" cy="286.8" r="1.70" fill="#ffe082" fill-opacity="0.47"/><circle cx="30.7" cy="429.8" r="1.39" fill="#ffd54f" fill-opacity="0.50"/><circle cx="164.7" cy="144.7" r="1.41" fill="#ffe082" fill-opacity="0.48"/><circle cx="364.6" cy="78.2" r="1.99" fill="#ffe082" fill-opacity="0.54"/><circle cx="231.5" cy="388.7" r="0.11" fill="#ffe082" fill-opacity="0.49"/><circle cx="57.9" cy="301.6" r="0.35" fill="#ffb300" fill-opacity="0.46"/><circle cx="350.9" cy="176.2" r="0.19" fill="#ffe082" fill-opacity="0.59"/><circle cx="250.9" cy="195.5" r="0.63" fill="#ffd54f" fill-opacity="0.45"/><circle cx="396.0" cy="91.8" r="0.44" fill="#ffe082" fill-opacity="0.56"/><circle cx="77.5" cy="163.0" r="0.13" fill="#ffd54f" fill-opacity="0.54"/><circle cx="71.7" cy="91.0" r="0.83" fill="#ffb300" fill-opacity="0.57"/><circle cx="81.2" cy="413.2" r="1.28" fill="#ffd54f" fill-opacity="0.54"/><circle cx="440.5" cy="60.7" r="1.18" fill="#ffd54f" fill-opacity="0.47"/><circle cx="264.7" cy="59.9" r="0.58" fill="#ffe082" fill-opacity="0.46"/><circle cx="394.0" cy="44.2" r="0.56" fill="#ffb300" fill-opacity="0.47"/><circle cx="463.9" cy="88.8" r="0.75" fill="#ffe082" fill-opacity="0.45"/><circle cx="365.0" cy="85.1" r="1.05" fill="#ffe082" fill-opacity="0.52"/><circle cx="49.5" cy="139.3" r="1.46" fill="#ffe082" fill-opacity="0.56"/><circle cx="126.1" cy="377.0" r="0.91" fill="#ffe082" fill-opacity="0.48"/><circle cx="95.8" cy="306.4" r="1.07" fill="#ffe082" fill-opacity="0.60"/><circle cx="330.9" cy="386.2" r="0.19" fill="#ffb300" fill-opacity="0.50"/><circle cx="2.5" cy="9.7" r="0.31" fill="#ffe082" fill-opacity="0.48"/><circle cx="502.6" cy="475.0" r="1.70" fill="#ffd54f" fill-opacity="0.58"/><circle cx="494.1" cy="42.6" r="1.96" fill="#ffb300" fill-opacity="0.49"/><circle cx="370.6" cy="319.9" r="1.70" fill="#ffb300" fill-opacity="0.52"/><circle cx="132.9" cy="67.6" r="0.87" fill="#ffd54f" fill-opacity="0.59"/><circle cx="435.9" cy="420.1" r="1.20" fill="#ffb300" fill-opacity="0.56"/><circle cx="497.8" cy="131.4" r="1.67" fill="#ffb300" fill-opacity="0.55"/><circle cx="294.3" cy="201.4" r="0.29" fill="#ffb300" fill-opacity="0.51"/><circle cx="501.9" cy="89.3" r="0.77" fill="#ffb300" fill-opacity="0.49"/><circle cx="222.8" cy="364.4" r="0.54" fill="#ffe082" fill-opacity="0.47"/><circle cx="1.7" cy="302.0" r="1.08" fill="#ffe082" fill-opacity="0.59"/><circle cx="301.8" cy="308.3" r="0.71" fill="#ffb300" fill-opacity="0.56"/><circle cx="225.8" cy="291.1" r="0.49" fill="#ffd54f" fill-opacity="0.46"/><circle cx="212.8" cy="136.8" r="0.90" fill="#ffe082" fill-opacity="0.46"/><circle cx="38.0" cy="413.9" r="1.14" fill="#ffe082" fill-opacity="0.59"/><circle cx="140.1" cy="306.8" r="1.74" fill="#ffb300" fill-opacity="0.49"/><circle cx="50.6" cy="420.3" r="0.92" fill="#ffe082" fill-opacity="0.52"/><circle cx="504.5" cy="56.4" r="0.51" fill="#ffb300" fill-opacity="0.54"/><circle cx="245.7" cy="133.4" r="0.20" fill="#ffe082" fill-opacity="0.55"/><circle cx="374.4" cy="385.3" r="1.16" fill="#ffb300" fill-opacity="0.59"/><circle cx="354.2" cy="241.7" r="0.77" fill="#ffd54f" fill-opacity="0.48"/><circle cx="133.6" cy="177.2" r="1.07" fill="#ffe082" fill-opacity="0.60"/><circle cx="231.9" cy="339.2" r="0.95" fill="#ffb300" fill-opacity="0.52"/><circle cx="339.1" cy="435.5" r="0.75" fill="#ffb300" fill-opacity="0.58"/><circle cx="115.8" cy="484.5" r="0.52" fill="#ffe082" fill-opacity="0.55"/><circle cx="62.3" cy="423.8" r="0.32" fill="#ffb300" fill-opacity="0.53"/><circle cx="72.8" cy="10.2" r="1.90" fill="#ffd54f" fill-opacity="0.47"/><circle cx="478.4" cy="72.0" r="1.63" fill="#ffb300" fill-opacity="0.46"/><circle cx="502.9" cy="413.0" r="1.90" fill="#ffb300" fill-opacity="0.59"/><circle cx="219.6" cy="441.1" r="0.75" fill="#ffb300" fill-opacity="0.48"/><circle cx="180.6" cy="180.1" r="0.83" fill="#ffd54f" fill-opacity="0.60"/><circle cx="259.8" cy="374.9" r="0.44" fill="#ffe082" fill-opacity="0.49"/><circle cx="434.2" cy="263.6" r="0.50" fill="#ffd54f" fill-opacity="0.56"/><circle cx="271.8" cy="318.9" r="0.42" fill="#ffd54f" fill-opacity="0.52"/><circle cx="511.3" cy="304.7" r="1.01" fill="#ffd54f" fill-opacity="0.55"/><circle cx="427.5" cy="508.7" r="0.91" fill="#ffe082" fill-opacity="0.49"/><circle cx="180.7" cy="429.4" r="1.22" fill="#ffb300" fill-opacity="0.54"/><circle cx="242.8" cy="377.4" r="1.97" fill="#ffe082" fill-opacity="0.54"/><circle cx="183.9" cy="44.4" r="0.80" fill="#ffd54f" fill-opacity="0.46"/><circle cx="420.9" cy="179.1" r="1.68" fill="#ffb300" fill-opacity="0.51"/><circle cx="505.3" cy="281.0" r="0.83" fill="#ffd54f" fill-opacity="0.51"/><circle cx="379.6" cy="182.6" r="1.33" fill="#ffb300" fill-opacity="0.58"/><circle cx="322.3" cy="260.2" r="1.13" fill="#ffe082" fill-opacity="0.58"/><circle cx="472.7" cy="49.3" r="0.42" fill="#ffb300" fill-opacity="0.50"/><circle cx="365.9" cy="221.2" r="0.15" fill="#ffd54f" fill-opacity="0.46"/><circle cx="357.3" cy="331.4" r="0.33" fill="#ffb300" fill-opacity="0.50"/><circle cx="258.0" cy="389.2" r="0.67" fill="#ffd54f" fill-opacity="0.52"/><circle cx="107.1" cy="326.1" r="1.81" fill="#ffb300" fill-opacity="0.48"/><circle cx="455.7" cy="430.6" r="0.60" fill="#ffe082" fill-opacity="0.60"/><circle cx="72.5" cy="382.0" r="1.90" fill="#ffe082" fill-opacity="0.53"/><circle cx="50.3" cy="188.2" r="0.58" fill="#ffe082" fill-opacity="0.46"/><circle cx="145.3" cy="372.4" r="0.71" fill="#ffd54f" fill-opacity="0.47"/><circle cx="115.7" cy="440.9" r="0.73" fill="#ffd54f" fill-opacity="0.58"/><circle cx="218.8" cy="463.8" r="0.97" fill="#ffb300" fill-opacity="0.46"/><circle cx="38.4" cy="12.0" r="0.99" fill="#ffb300" fill-opacity="0.49"/><circle cx="45.1" cy="54.0" r="0.24" fill="#ffd54f" fill-opacity="0.47"/><circle cx="345.9" cy="463.7" r="0.20" fill="#ffb300" fill-opacity="0.60"/><circle cx="296.6" cy="430.4" r="0.18" fill="#ffd54f" fill-opacity="0.58"/><circle cx="26.2" cy="102.7" r="0.97" fill="#ffb300" fill-opacity="0.49"/><circle cx="222.7" cy="49.5" r="1.44" fill="#ffe082" fill-opacity="0.55"/><circle cx="287.6" cy="336.1" r="1.04" fill="#ffb300" fill-opacity="0.53"/><circle cx="46.0" cy="102.0" r="1.13" fill="#ffd54f" fill-opacity="0.53"/><circle cx="482.4" cy="234.8" r="0.51" fill="#ffb300" fill-opacity="0.51"/><circle cx="439.7" cy="49.1" r="1.60" fill="#ffb300" fill-opacity="0.56"/><circle cx="170.2" cy="319.0" r="0.31" fill="#ffb300" fill-opacity="0.54"/><circle cx="267.9" cy="212.4" r="1.65" fill="#ffd54f" fill-opacity="0.51"/><circle cx="450.7" cy="229.7" r="0.24" fill="#ffe082" fill-opacity="0.56"/><circle cx="241.7" cy="465.6" r="0.21" fill="#ffb300" fill-opacity="0.58"/><circle cx="248.0" cy="114.5" r="1.12" fill="#ffd54f" fill-opacity="0.53"/><circle cx="459.8" cy="291.7" r="0.30" fill="#ffb300" fill-opacity="0.51"/><circle cx="374.1" cy="275.8" r="0.24" fill="#ffe082" fill-opacity="0.53"/><circle cx="328.4" cy="422.7" r="0.76" fill="#ffd54f" fill-opacity="0.58"/><circle cx="254.2" cy="148.6" r="0.75" fill="#ffd54f" fill-opacity="0.50"/><circle cx="121.8" cy="225.6" r="0.59" fill="#ffe082" fill-opacity="0.55"/><circle cx="330.1" cy="330.4" r="1.42" fill="#ffb300" fill-opacity="0.57"/><circle cx="376.7" cy="15.7" r="0.36" fill="#ffb300" fill-opacity="0.57"/><circle cx="426.3" cy="138.8" r="0.80" fill="#ffd54f" fill-opacity="0.53"/><circle cx="499.1" cy="253.7" r="0.21" fill="#ffe082" fill-opacity="0.56"/><circle cx="494.0" cy="199.9" r="0.69" fill="#ffb300" fill-opacity="0.47"/><circle cx="329.2" cy="384.4" r="0.40" fill="#ffb300" fill-opacity="0.53"/><circle cx="77.3" cy="124.8" r="1.90" fill="#ffd54f" fill-opacity="0.51"/><circle cx="164.0" cy="366.7" r="1.68" fill="#ffb300" fill-opacity="0.46"/><circle cx="499.1" cy="32.1" r="1.91" fill="#ffe082" fill-opacity="0.58"/><circle cx="494.5" cy="327.0" r="0.66" fill="#ffe082" fill-opacity="0.47"/><circle cx="425.3" cy="102.9" r="1.45" fill="#ffe082" fill-opacity="0.60"/><circle cx="347.4" cy="260.0" r="0.31" fill="#ffb300" fill-opacity="0.54"/><circle cx="31.3" cy="507.8" r="0.40" fill="#ffe082" fill-opacity="0.55"/><circle cx="174.3" cy="413.7" r="0.84" fill="#ffd54f" fill-opacity="0.58"/><circle cx="230.3" cy="49.9" r="1.34" fill="#ffe082" fill-opacity="0.52"/><circle cx="77.6" cy="237.9" r="1.72" fill="#ffe082" fill-opacity="0.53"/><circle cx="166.5" cy="365.4" r="1.51" fill="#ffd54f" fill-opacity="0.52"/><circle cx="494.7" cy="20.2" r="0.11" fill="#ffb300" fill-opacity="0.56"/><circle cx="338.6" cy="72.9" r="1.95" fill="#ffe082" fill-opacity="0.59"/><circle cx="487.1" cy="162.9" r="1.41" fill="#ffe082" fill-opacity="0.48"/><circle cx="275.1" cy="105.7" r="1.88" fill="#ffb300" fill-opacity="0.59"/><circle cx="350.4" cy="272.5" r="0.26" fill="#ffe082" fill-opacity="0.56"/><circle cx="99.1" cy="151.4" r="0.23" fill="#ffb300" fill-opacity="0.59"/><circle cx="331.2" cy="55.8" r="1.04" fill="#ffb300" fill-opacity="0.55"/><circle cx="425.4" cy="147.7" r="0.29" fill="#ffd54f" fill-opacity="0.50"/><circle cx="291.1" cy="151.2" r="1.80" fill="#ffb300" fill-opacity="0.56"/><circle cx="52.9" cy="153.8" r="0.98" fill="#ffd54f" fill-opacity="0.48"/><circle cx="21.8" cy="173.8" r="0.63" fill="#ffd54f" fill-opacity="0.48"/><circle cx="249.9" cy="267.6" r="1.67" fill="#ffe082" fill-opacity="0.55"/><circle cx="42.4" cy="286.2" r="1.14" fill="#ffd54f" fill-opacity="0.52"/><circle cx="87.1" cy="291.4" r="0.66" fill="#ffe082" fill-opacity="0.51"/><circle cx="121.0" cy="308.3" r="1.85" fill="#ffe082" fill-opacity="0.49"/><circle cx="503.9" cy="263.7" r="0.31" fill="#ffb300" fill-opacity="0.57"/><circle cx="374.9" cy="367.5" r="0.62" fill="#ffe082" fill-opacity="0.57"/><circle cx="137.6" cy="74.2" r="1.92" fill="#ffd54f" fill-opacity="0.60"/><circle cx="359.6" cy="4.3" r="0.38" fill="#ffb300" fill-opacity="0.47"/><circle cx="280.2" cy="38.1" r="0.72" fill="#ffb300" fill-opacity="0.48"/><circle cx="208.5" cy="160.9" r="1.71" fill="#ffe082" fill-opacity="0.54"/><circle cx="276.5" cy="254.8" r="1.56" fill="#ffd54f" fill-opacity="0.54"/><circle cx="286.8" cy="70.2" r="1.69" fill="#ffb300" fill-opacity="0.54"/><circle cx="273.7" cy="191.9" r="0.47" fill="#ffb300" fill-opacity="0.50"/><circle cx="102.2" cy="1.7" r="0.65" fill="#ffb300" fill-opacity="0.53"/><circle cx="242.8" cy="430.6" r="1.97" fill="#ffb300" fill-opacity="0.55"/><circle cx="132.2" cy="193.0" r="0.19" fill="#ffb300" fill-opacity="0.49"/><circle cx="201.7" cy="183.9" r="0.78" fill="#ffb300" fill-opacity="0.57"/><circle cx="213.0" cy="105.2" r="0.65" fill="#ffd54f" fill-opacity="0.52"/><circle cx="260.0" cy="461.9" r="0.70" fill="#ffb300" fill-opacity="0.52"/><circle cx="282.1" cy="223.3" r="0.32" fill="#ffb300" fill-opacity="0.49"/><circle cx="50.7" cy="230.8" r="1.51" fill="#ffb300" fill-opacity="0.58"/><circle cx="489.0" cy="340.3" r="1.11" fill="#ffe082" fill-opacity="0.45"/><circle cx="434.1" cy="324.3" r="0.68" fill="#ffd54f" fill-opacity="0.52"/><circle cx="237.4" cy="162.2" r="1.87" fill="#ffd54f" fill-opacity="0.56"/><circle cx="427.2" cy="218.8" r="0.50" fill="#ffb300" fill-opacity="0.51"/><circle cx="266.0" cy="496.6" r="0.89" fill="#ffb300" fill-opacity="0.50"/><circle cx="444.4" cy="451.6" r="1.52" fill="#ffe082" fill-opacity="0.53"/><circle cx="296.3" cy="330.3" r="1.48" fill="#ffd54f" fill-opacity="0.57"/><circle cx="64.4" cy="146.6" r="1.37" fill="#ffd54f" fill-opacity="0.51"/><circle cx="160.7" cy="139.8" r="0.33" fill="#ffd54f" fill-opacity="0.56"/><circle cx="49.6" cy="143.9" r="1.98" fill="#ffe082" fill-opacity="0.50"/><circle cx="482.2" cy="166.6" r="1.18" fill="#ffe082" fill-opacity="0.59"/><path d="M380.00 256.00 L387.84 261.18 L395.01 266.94 L401.07 273.17 L405.64 279.70 L408.43 286.32 L409.23 292.79 L407.97 298.86 L404.68 304.31 L399.53 308.95 L392.77 312.65 L384.74 315.35 L375.85 317.06 L366.52 317.89 L357.19 318.01 L348.28 317.66 L340.15 317.14 L333.08 316.76 L327.25 316.86 L322.78 317.73 L319.64 319.64 L317.73 322.78 L316.86 327.25 L316.76 333.08 L317.14 340.15 L317.66 348.28 L318.01 357.19 L317.89 366.52 L317.06 375.85 L315.35 384.74 L312.65 392.77 L308.95 399.53 L304.31 404.68 L298.86 407.97 L292.79 409.23 L286.32 408.43 L279.70 405.64 L273.17 401.07 L266.94 395.01 L261.18 387.84 L256.00 380.00 L251.44 371.97 L247.48 364.23 L244.02 357.21 L240.91 351.31 L237.94 346.81 L234.89 343.92 L231.54 342.72 L227.67 343.18 L223.12 345.14 L217.75 348.35 L211.52 352.48 L204.48 357.12 L196.71 361.86 L188.43 366.26 L179.88 369.92 L171.37 372.49 L163.23 373.68 L155.79 373.33 L149.39 371.33 L144.28 367.72 L140.67 362.61 L138.67 356.21 L138.32 348.77 L139.51 340.63 L142.08 332.12 L145.74 323.57 L150.14 315.29 L154.88 307.52 L159.52 300.48 L163.65 294.25 L166.86 288.88 L168.82 284.33 L169.28 280.46 L168.08 277.11 L165.19 274.06 L160.69 271.09 L154.79 267.98 L147.77 264.52 L140.03 260.56 L132.00 256.00 L124.16 250.82 L116.99 245.06 L110.93 238.83 L106.36 232.30 L103.57 225.68 L102.77 219.21 L104.03 213.14 L107.32 207.69 L112.47 203.05 L119.23 199.35 L127.26 196.65 L136.15 194.94 L145.48 194.11 L154.81 193.99 L163.72 194.34 L171.85 194.86 L178.92 195.24 L184.75 195.14 L189.22 194.27 L192.36 192.36 L194.27 189.22 L195.14 184.75 L195.24 178.92 L194.86 171.85 L194.34 163.72 L193.99 154.81 L194.11 145.48 L194.94 136.15 L196.65 127.26 L199.35 119.23 L203.05 112.47 L207.69 107.32 L213.14 104.03 L219.21 102.77 L225.68 103.57 L232.30 106.36 L238.83 110.93 L245.06 116.99 L250.82 124.16 L256.00 132.00 L260.56 140.03 L264.52 147.77 L267.98 154.79 L271.09 160.69 L274.06 165.19 L277.11 168.08 L280.46 169.28 L284.33 168.82 L288.88 166.86 L294.25 163.65 L300.48 159.52 L307.52 154.88 L315.29 150.14 L323.57 145.74 L332.12 142.08 L340.63 139.51 L348.77 138.32 L356.21 138.67 L362.61 140.67 L367.72 144.28 L371.33 149.39 L373.33 155.79 L373.68 163.23 L372.49 171.37 L369.92 179.88 L366.26 188.43 L361.86 196.71 L357.12 204.48 L352.48 211.52 L348.35 217.75 L345.14 223.12 L343.18 227.67 L342.72 231.54 L343.92 234.89 L346.81 237.94 L351.31 240.91 L357.21 244.02 L364.23 247.48 L371.97 251.44 L380.00 256.00" fill="none" stroke="hsl(45, 90%, 60%)" stroke-width="1.4" stroke-linecap="round" stroke-linejoin="round" opacity="0.95"/><path d="M264.00 256.00 L265.26 257.97 L265.99 260.45 L266.03 263.29 L265.28 266.30 L263.67 269.28 L261.19 271.98 L257.91 274.17 L253.94 275.63 L249.45 276.16 L244.67 275.63 L239.85 273.93 L235.29 271.05 L231.27 267.01 L228.09 261.93 L226.00 256.00 L225.22 249.46 L225.91 242.60 L228.17 235.78 L232.00 229.35 L237.33 223.67 L244.01 219.10 L251.79 215.95 L260.36 214.50 L269.35 214.91 L278.33 217.32 L286.87 221.72 L294.51 228.02 L300.82 236.04 L305.43 245.49 L308.00 256.00 L308.30 267.12 L306.18 278.34 L301.63 289.15 L294.72 299.00 L285.67 307.38 L274.79 313.82 L262.51 317.93 L249.34 319.38 L235.85 318.01 L222.67 313.74 L210.41 306.63 L199.69 296.91 L191.08 284.91 L185.05 271.08 L182.00 256.00 L182.18 240.31 L185.72 224.71 L192.57 209.92 L202.56 196.65 L215.33 185.56 L230.41 177.25 L247.19 172.19 L264.96 170.74 L282.95 173.07 L300.33 179.21 L316.31 189.02 L330.11 202.16 L341.02 218.15 L348.47 236.35 L352.00 256.00 L351.34 276.26 L346.38 296.24 L337.23 315.01 L324.16 331.70 L307.67 345.49 L288.38 355.67 L267.11 361.68 L244.74 363.14 L222.26 359.86 L200.67 351.84 L180.97 339.33 L164.10 322.77 L150.88 302.80 L142.01 280.23 L138.00 256.00 L139.14 231.16 L145.52 206.81 L156.98 184.06 L173.12 163.95 L193.33 147.46 L216.82 135.41 L242.59 128.44 L269.56 126.98 L296.54 131.22 L322.33 141.11 L345.75 156.32 L365.70 176.30 L381.22 200.25 L391.51 227.20 L396.00 256.00 L394.38 285.41 L386.58 314.14 L372.82 340.88 L353.60 364.40 L329.67 383.59 L301.98 397.52 L271.71 405.44 L240.14 406.90 L208.66 401.70 L178.67 389.95 L151.53 372.03 L128.50 348.63 L110.69 320.70 L98.97 289.38 L94.00 256.00 L96.11 222.01 L105.33 188.92 L121.38 158.19 L143.68 131.25 L171.33 109.35 L203.22 93.56 L237.99 84.68 L274.16 83.22 L310.14 89.37 L344.33 103.00 L375.19 123.62 L401.30 150.43 L421.41 182.35 L434.54 218.05 L440.00 256.00 L437.41 294.56 L426.77 332.03 L408.42 366.74 L383.05 397.10 L351.67 421.70 L315.58 439.36 L276.31 449.20 L235.54 450.66 L195.06 443.55 L156.67 428.05 L122.08 404.73 L92.90 374.50 L70.49 338.59 L55.94 298.52 L50.00 256.00 L53.07 212.87 L65.13 171.02 L85.78 132.33 L114.23 98.55 L149.33 71.25 L189.62 51.71 L233.39 40.92 L278.76 39.46 L323.74 47.53 L366.33 64.90 L404.64 90.92 L436.90 124.57 L461.61 164.46 L477.58 208.90 L484.00 256.00 L480.45 303.71 L466.97 349.93 L444.02 392.60 L412.49 429.80 L373.67 459.80 L329.18 481.21 L280.91 492.96 L230.94 494.42 L181.47 485.39 L134.67 466.16 L92.64 437.43 L57.31 400.36 L30.29 356.49 L12.90 307.67 L6.00 256.00 L10.03 203.72 L24.93 153.12 L50.19 106.47 L84.79 65.85 L127.33 33.14 L176.03 9.87 L228.79 -2.84 L283.36 -4.30 L337.33 5.68 L388.33 26.79 L434.08 58.22 L472.49 98.71 L501.80 146.56 L520.62 199.75 L528.00 256.00" fill="none" stroke="rgba(180,180,180,0.5)" stroke-width="1.2" stroke-linecap="round" stroke-linejoin="round" opacity="0.7"/><g stroke="rgba(180,180,180,0.5)" stroke-width="1.6" fill="none" opacity="0.95"><circle cx="256" cy="256" r="18" /><circle cx="256" cy="256" r="30" /><circle cx="256" cy="256" r="42" /><circle cx="256" cy="256" r="54" /><circle cx="256" cy="256" r="66" /><circle cx="256" cy="256" r="78" /><circle cx="256" cy="256" r="90" /><circle cx="256" cy="256" r="102" /></g><g stroke="rgba(180,180,180,0.5)" stroke-width="1.6" fill="none" opacity="0.95"><line x1="336" y1="256" x2="480" y2="256" /><line x1="333.4866528902905" y1="275.8951909731884" x2="472.96262809281336" y2="311.70653472492745" /><line x1="326.1045344035091" y1="294.5402939281372" x2="452.29269632982545" y2="363.91282299878424" /><line x1="314.31749019371296" y1="310.7637684742951" x2="419.2889725423962" y2="409.33855172802623" /><line x1="298.8661435983197" y1="323.5462340401612" x2="376.0252020752952" y2="445.12945531245134" /><line x1="280.7213595499958" y1="332.0845213036123" x2="325.21980673998826" y2="469.0366596501144" /><line x1="261.0232415623451" y1="335.84213827426174" x2="270.0650763745662" y2="479.5579871679328" /><line x1="241.009494833142" y1="334.5829800582951" x2="214.02658553279764" y2="476.03234416322624" /><line x1="221.9376566747942" y1="328.3861641972816" x2="160.62543868942373" y2="458.68125975238837" /><line x1="205.0060808201048" y1="317.6410594220631" x2="113.21702629629351" y2="428.59496638177677" /><line x1="191.27864045000422" y1="303.02282018339787" x2="74.7801932600118" y2="387.66389651351403" /><line x1="181.6178811289399" y1="285.44996421477424" x2="47.730067161031684" y2="338.4598998013679" /><line x1="176.6308238948418" y1="266.02665868514435" x2="33.766306905556974" y2="284.07464431840424" /><line x1="176.63082389484177" y1="245.97334131485565" x2="33.766306905556945" y2="227.92535568159585" /><line x1="181.6178811289399" y1="226.55003578522573" x2="47.73006716103171" y2="173.54010019863205" /><line x1="191.2786404500042" y1="208.97717981660216" x2="74.78019326001174" y2="124.33610348648605" /><line x1="205.00608082010484" y1="194.35894057793683" x2="113.21702629629354" y2="83.40503361822317" /><line x1="221.93765667479423" y1="183.61383580271843" x2="160.62543868942385" y2="53.31874024761157" /><line x1="241.00949483314204" y1="177.4170199417049" x2="214.0265855327977" y2="35.96765583677373" /><line x1="261.02324156234505" y1="176.15786172573826" x2="270.06507637456605" y2="32.44201283206718" /><line x1="280.7213595499958" y1="179.9154786963877" x2="325.21980673998814" y2="42.963340349885584" /><line x1="298.8661435983197" y1="188.45376595983876" x2="376.0252020752951" y2="66.87054468754852" /><line x1="314.3174901937129" y1="201.23623152570488" x2="419.2889725423961" y2="102.66144827197368" /><line x1="326.1045344035091" y1="217.45970607186277" x2="452.29269632982545" y2="148.08717700121576" /><line x1="333.4866528902905" y1="236.10480902681158" x2="472.96262809281336" y2="200.2934652750724" /></g><circle cx="256" cy="256" r="20" fill="rgba(255, 230, 150, 0.12)"/><circle cx="256" cy="256" r="10" fill="hsl(83 80% 60%)"/>
  </svg>