<svg xmlns="http://www.w3.org/2000/svg" viewBox="0 0 512 512" width="512" height="512">
    <rect width="100%" height="100%" fill="#0b0f14"/>
    <circle cx="69.6" cy="438.4" r="1.09" fill="#ffb300" fill-opacity="0.53"/><circle cx="231.1" cy="170.3" r="1.69" fill="#ffd54f" fill-opacity="0.58"/><circle cx="79.5" cy="325.6" r="1.51" fill="#ffd54f" fill-opacity="0.45"/><circle cx="508.0" cy="442.2" r="1.93" fill="#ffb300" fill-opacity="0.48"/><circle cx="511.6" cy="449.8" r="0.74" fill="#ffd54f" fill-opacity="0.54"/><circle cx="146.3" cy="278.8" r="1.62" fill="#ffd54f" fill-opacity="0.53"/><circle cx="37.9" cy="363.1" r="0.40" fill="#ffb300" fill-opacity="0.53"/><circle cx="172.7" cy="342.0" r="1.62" fill="#ffe082" fill-opacity="0.49"/><circle cx="72.6" cy="473.1" r="1.12" fill="#ffb300" fill-opacity="0.50"/><circle cx="318.5" cy="218.6" r="1.47" fill="#ffe082" fill-opacity="0.51"/><circle cx="371.6" cy="245.2" r="1.27" fill="#ffe082" fill-opacity="0.58"/><circle cx="323.5" cy="402.7" r="0.29" fill="#ffd54f" fill-opacity="0.46"/><circle cx="486.0" cy="322.1" r="0.86" fill="#ffb300" fill-opacity="0.46"/><circle cx="27.5" cy="407.0" r="0.63" fill="#ffd54f" fill-opacity="0.54"/><circle cx="259.9" cy="468.4" r="1.73" fill="#ffd54f" fill-opacity="0.46"/><circle cx="299.8" cy="419.9" r="0.92" fill="#ffd54f" fill-opacity="0.53"/><circle cx="269.4" cy="365.9" r="1.02" fill="#ffd54f" fill-opacity="0.58"/><circle cx="361.4" cy="172.0" r="1.95" fill="#ffe082" fill-opacity="0.51"/><circle cx="157.5" cy="351.7" r="0.63" fill="#ffd54f" fill-opacity="0.55"/><circle cx="7.5" cy="438.5" r="0.93" fill="#ffe082" fill-opacity="0.53"/><circle cx="435.3" cy="287.9" r="1.75" fill="#ffe082" fill-opacity="0.53"/><circle cx="467.3" cy="199.8" r="0.54" fill="#ffe082" fill-opacity="0.57"/><circle cx="114.6" cy="132.6" r="1.47" fill="#ffd54f" fill-opacity="0.53"/><circle cx="374.9" cy="375.7" r="1.58" fill="#ffb300" fill-opacity="0.52"/><circle cx="156.7" cy="53.6" r="1.03" fill="#ffe082" fill-opacity="0.55"/><circle cx="170.5" cy="287.3" r="1.36" fill="#ffb300" fill-opacity="0.49"/><circle cx="256.1" cy="461.2" r="1.49" fill="#ffe082" fill-opacity="0.56"/><circle cx="452.7" cy="314.1" r="1.86" fill="#ffe082" fill-opacity="0.49"/><circle cx="33.2" cy="258.1" r="1.17" fill="#ffe082" fill-opacity="0.57"/><circle cx="246.8" cy="294.4" r="1.28" fill="#ffd54f" fill-opacity="0.57"/><circle cx="462.8" cy="510.2" r="0.32" fill="#ffe082" fill-opacity="0.57"/><circle cx="130.5" cy="499.7" r="0.95" fill="#ffe082" fill-opacity="0.46"/><circle cx="102.0" cy="84.3" r="1.42" fill="#ffd54f" fill-opacity="0.47"/><circle cx="62.4" cy="153.0" r="1.55" fill="#ffd54f" fill-opacity="0.51"/><circle cx="476.2" cy="180.9" r="0.25" fill="#ffe082" fill-opacity="0.60"/><circle cx="466.8" cy="204.9" r="0.65" fill="#ffe082" fill-opacity="0.57"/><circle cx="320.4" cy="4.8" r="1.25" fill="#ffe082" fill-opacity="0.53"/><circle cx="82.7" cy="185.2" r="0.67" fill="#ffe082" fill-opacity="0.47"/><circle cx="62.7" cy="487.7" r="1.78" fill="#ffe082" fill-opacity="0.50"/><circle cx="382.2" cy="400.2" r="1.86" fill="#ffd54f" fill-opacity="0.50"/><circle cx="465.0" cy="257.0" r="1.75" fill="#ffb300" fill-opacity="0.56"/><circle cx="144.0" cy="385.5" r="1.95" fill="#ffe082" fill-opacity="0.50"/><circle cx="309.5" cy="395.1" r="0.34" fill="#ffe082" fill-opacity="0.58"/><circle cx="22.1" cy="474.0" r="0.21" fill="#ffe082" fill-opacity="0.55"/><circle cx="56.0" cy="207.8" r="1.67" fill="#ffb300" fill-opacity="0.56"/><circle cx="242.5" cy="279.0" r="0.28" fill="#ffe082" fill-opacity="0.45"/><circle cx="306.0" cy="163.8" r="1.53" fill="#ffe082" fill-opacity="0.58"/><circle cx="238.7" cy="320.9" r="0.43" fill="#ffd54f" fill-opacity="0.49"/><circle cx="219.0" cy="257.8" r="0.88" fill="#ffb300" fill-opacity="0.48"/><circle cx="111.6" cy="82.7" r="1.50" fill="#ffd54f" fill-opacity="0.57"/><circle cx="445.1" cy="130.7" r="1.59" fill="#ffe082" fill-opacity="0.50"/><circle cx="464.6" cy="157.3" r="0.81" fill="#ffb300" fill-opacity="0.58"/><circle cx="186.9" cy="14.9" r="1.92" fill="#ffd54f" fill-opacity="0.60"/><circle cx="343.2" cy="351.8" r="1.07" fill="#ffe082" fill-opacity="0.46"/><circle cx="322.3" cy="26.5" r="1.27" fill="#ffd54f" fill-opacity="0.52"/><circle cx="392.3" cy="239.8" r="1.73" fill="#ffb300" fill-opacity="0.59"/><circle cx="504.6" cy="78.7" r="1.67" fill="#ffd54f" fill-opacity="0.49"/><circle cx="280.4" cy="113.0" r="1.10" fill="#ffd54f" fill-opacity="0.49"/><circle cx="302.6" cy="91.0" r="1.00" fill="#ffb300" fill-opacity="0.47"/><circle cx="334.1" cy="275.8" r="1.44" fill="#ffb300" fill-opacity="0.51"/><circle cx="361.9" cy="42.5" r="0.48" fill="#ffd54f" fill-opacity="0.50"/><circle cx="73.9" cy="69.5" r="1.63" fill="#ffd54f" fill-opacity="0.57"/><circle cx="456.8" cy="251.5" r="0.45" fill="#ffd54f" fill-opacity="0.58"/><circle cx="194.6" cy="397.8" r="1.49" fill="#ffe082" fill-opacity="0.47"/><circle cx="243.9" cy="36.7" r="0.34" fill="#ffd54f" fill-opacity="0.48"/><circle cx="404.9" cy="207.7" r="0.51" fill="#ffb300" fill-opacity="0.54"/><circle cx="197.6" cy="229.9" r="0.71" fill="#ffb300" fill-opacity="0.46"/><circle cx="377.0" cy="315.1" r="1.89" fill="#ffd54f" fill-opacity="0.45"/><circle cx="104.5" cy="477.1" r="1.77" fill="#ffe082" fill-opacity="0.55"/><circle cx="76.5" cy="276.7" r="0.83" fill="#ffb300" fill-opacity="0.48"/><circle cx="499.0" cy="97.6" r="0.37" fill="#ffd54f" fill-opacity="0.52"/><circle cx="338.8" cy="398.5" r="0.44" fill="#ffb300" fill-opacity="0.53"/><circle cx="187.9" cy="463.8" r="0.89" fill="#ffd54f" fill-opacity="0.58"/><circle cx="435.8" cy="478.1" r="0.96" fill="#ffb300" fill-opacity="0.50"/><circle cx="262.1" cy="145.7" r="1.08" fill="#ffb300" fill-opacity="0.57"/><circle cx="232.7" cy="131.9" r="1.67" fill="#ffb300" fill-opacity="0.50"/><circle cx="203.9" cy="448.1" r="0.22" fill="#ffd54f" fill-opacity="0.58"/><circle cx="251.5" cy="222.8" r="1.81" fill="#ffd54f" fill-opacity="0.58"/><circle cx="415.4" cy="88.4" r="0.78" fill="#ffd54f" fill-opacity="0.49"/><circle cx="136.9" cy="486.4" r="0.29" fill="#ffd54f" fill-opacity="0.45"/><circle cx="401.6" cy="508.0" r="0.38" fill="#ffb300" fill-opacity="0.47"/><circle cx="64.3" cy="306.8" r="1.69" fill="#ffb300" fill-opacity="0.53"/><circle cx="64.8" cy="152.0" r="0.81" fill="#ffb300" fill-opacity="0.50"/><circle cx="510.8" cy="437.0" r="0.53" fill="#ffd54f" fill-opacity="0.60"/><circle cx="464.5" cy="11.9" r="1.75" fill="#ffd54f" fill-opacity="0.46"/><circle cx="474.5" cy="336.9" r="1.40" fill="#ffd54f" fill-opacity="0.52"/><circle cx="454.1" cy="309.5" r="0.33" fill="#ffd54f" fill-opacity="0.60"/><circle cx="23.2" cy="476.5" r="1.27" fill="#ffd54f" fill-opacity="0.54"/><circle cx="290.6" cy="334.2" r="0.23" fill="#ffd54f" fill-opacity="0.54"/><circle cx="324.7" cy="123.3" r="1.10" fill="#ffe082" fill-opacity="0.46"/><circle cx="466.2" cy="406.8" r="0.31" fill="#ffb300" fill-opacity="0.57"/><circle cx="468.5" cy="314.9" r="1.93" fill="#ffe082" fill-opacity="0.52"/><circle cx="256.0" cy="171.7" r="1.65" fill="#ffe082" fill-opacity="0.53"/><circle cx="202.1" cy="386.8" r="1.27" fill="#ffe082" fill-opacity="0.54"/><circle cx="143.1" cy="335.7" r="0.98" fill="#ffb300" fill-opacity="0.60"/><circle cx="56.2" cy="433.5" r="0.45" fill="#ffd54f" fill-opacity="0.56"/><circle cx="25.6" cy="52.9" r="0.93" fill="#ffe082" fill-opacity="0.49"/><circle cx="180.5" cy="326.0" r="0.44" fill="#ffb300" fill-opacity="0.49"/><circle cx="148.8" cy="13.0" r="0.37" fill="#ffd54f" fill-opacity="0.55"/><circle cx="143.0" cy="167.2" r="1.67" fill="#ffb300" fill-opacity="0.51"/><circle cx="399.4" cy="154.9" r="1.02" fill="#ffb300" fill-opacity="0.53"/><circle cx="367.8" cy="83.6" r="0.45" fill="#ffb300" fill-opacity="0.45"/><circle cx="149.0" cy="240.0" r="0.96" fill="#ffb300" fill-opacity="0.45"/><circle cx="51.4" cy="445.2" r="0.45" fill="#ffd54f" fill-opacity="0.59"/><circle cx="95.6" cy="506.2" r="1.76" fill="#ffd54f" fill-opacity="0.48"/><circle cx="197.7" cy="318.4" r="1.87" fill="#ffb300" fill-opacity="0.59"/><circle cx="56.5" cy="456.1" r="0.40" fill="#ffb300" fill-opacity="0.60"/><circle cx="8.9" cy="182.6" r="1.50" fill="#ffd54f" fill-opacity="0.59"/><circle cx="181.4" cy="190.4" r="1.43" fill="#ffd54f" fill-opacity="0.53"/><circle cx="242.9" cy="176.0" r="0.31" fill="#ffd54f" fill-opacity="0.55"/><circle cx="309.2" cy="490.8" r="1.04" fill="#ffd54f" fill-opacity="0.48"/><circle cx="360.5" cy="231.1" r="0.42" fill="#ffb300" fill-opacity="0.55"/><circle cx="438.1" cy="184.6" r="1.38" fill="#ffb300" fill-opacity="0.58"/><circle cx="386.7" cy="395.7" r="1.15" fill="#ffe082" fill-opacity="0.51"/><circle cx="306.3" cy="229.1" r="1.49" fill="#ffd54f" fill-opacity="0.47"/><circle cx="148.9" cy="249.0" r="0.68" fill="#ffb300" fill-opacity="0.48"/><circle cx="258.9" cy="249.7" r="1.25" fill="#ffb300" fill-opacity="0.56"/><circle cx="190.4" cy="91.5" r="0.37" fill="#ffd54f" fill-opacity="0.53"/><circle cx="86.9" cy="507.7" r="1.76" fill="#ffe082" fill-opacity="0.59"/><circle cx="380.8" cy="505.0" r="0.32" fill="#ffe082" fill-opacity="0.49"/><circle cx="478.8" cy="5.3" r="0.17" fill="#ffd54f" fill-opacity="0.52"/><circle cx="199.3" cy="63.3" r="0.28" fill="#ffb300" fill-opacity="0.57"/><circle cx="178.8" cy="154.6" r="0.87" fill="#ffd54f" fill-opacity="0.59"/><circle cx="329.0" cy="388.6" r="1.98" fill="#ffb300" fill-opacity="0.50"/><circle cx="284.0" cy="422.5" r="0.24" fill="#ffe082" fill-opacity="0.52"/><circle cx="230.8" cy="357.2" r="0.48" fill="#ffb300" fill-opacity="0.50"/><circle cx="129.2" cy="331.3" r="0.46" fill="#ffd54f" fill-opacity="0.55"/><circle cx="276.9" cy="289.0" r="0.32" fill="#ffd54f" fill-opacity="0.49"/><circle cx="131.7" cy="342.9" r="1.65" fill="#ffb300" fill-opacity="0.58"/><circle cx="376.7" cy="343.2" r="1.25" fill="#ffb300" fill-opacity="0.59"/><circle cx="463.0" cy="257.3" r="0.33" fill="#ffe082" fill-opacity="0.55"/><circle cx="358.4" cy="65.4" r="1.33" fill="#ffb300" fill-opacity="0.54"/><circle cx="268.3" cy="2.3" r="0.57" fill="#ffe082" fill-opacity="0.48"/><circle cx="459.3" cy="192.2" r="0.97" fill="#ffb300" fill-opacity="0.57"/><circle cx="365.6" cy="210.3" r="1.00" fill="#ffb300" fill-opacity="0.47"/><circle cx="481.7" cy="144.1" r="1.70" fill="#ffd54f" fill-opacity="0.47"/><circle cx="67.8" cy="22.2" r="1.36" fill="#ffe082" fill-opacity="0.59"/><circle cx="323.5" cy="43.1" r="1.85" fill="#ffb300" fill-opacity="0.59"/><circle cx="320.8" cy="407.0" r="0.89" fill="#ffb300" fill-opacity="0.57"/><circle cx="389.3" cy="468.9" r="1.53" fill="#ffd54f" fill-opacity="0.58"/><circle cx="468.2" cy="216.1" r="0.88" fill="#ffd54f" fill-opacity="0.51"/><circle cx="179.7" cy="338.4" r="1.17" fill="#ffb300" fill-opacity="0.48"/><circle cx="194.2" cy="507.9" r="0.80" fill="#ffe082" fill-opacity="0.48"/><circle cx="342.7" cy="344.7" r="0.88" fill="#ffe082" fill-opacity="0.48"/><circle cx="483.4" cy="186.1" r="0.19" fill="#ffe082" fill-opacity="0.56"/><circle cx="321.7" cy="482.4" r="0.26" fill="#ffe082" fill-opacity="0.45"/><circle cx="413.5" cy="109.5" r="1.17" fill="#ffd54f" fill-opacity="0.55"/><circle cx="251.3" cy="432.1" r="1.90" fill="#ffd54f" fill-opacity="0.55"/><circle cx="217.0" cy="427.5" r="0.94" fill="#ffe082" fill-opacity="0.58"/><circle cx="264.2" cy="161.3" r="0.28" fill="#ffb300" fill-opacity="0.55"/><circle cx="161.1" cy="333.6" r="1.63" fill="#ffb300" fill-opacity="0.52"/><circle cx="153.6" cy="108.0" r="0.59" fill="#ffb300" fill-opacity="0.53"/><circle cx="63.3" cy="184.0" r="1.23" fill="#ffd54f" fill-opacity="0.50"/><circle cx="39.3" cy="164.0" r="1.41" fill="#ffd54f" fill-opacity="0.52"/><circle cx="340.8" cy="73.0" r="1.41" fill="#ffb300" fill-opacity="0.52"/><circle cx="232.0" cy="11.9" r="0.83" fill="#ffb300" fill-opacity="0.54"/><circle cx="418.5" cy="51.1" r="0.96" fill="#ffb300" fill-opacity="0.55"/><circle cx="50.8" cy="287.9" r="1.00" fill="#ffb300" fill-opacity="0.52"/><circle cx="422.2" cy="71.5" r="0.66" fill="#ffb300" fill-opacity="0.53"/><circle cx="227.1" cy="324.9" r="1.81" fill="#ffe082" fill-opacity="0.49"/><circle cx="225.8" cy="52.0" r="0.52" fill="#ffb300" fill-opacity="0.57"/><circle cx="307.4" cy="364.9" r="1.31" fill="#ffd54f" fill-opacity="0.56"/><circle cx="212.3" cy="377.1" r="1.45" fill="#ffb300" fill-opacity="0.48"/><circle cx="280.3" cy="491.0" r="1.61" fill="#ffe082" fill-opacity="0.46"/><circle cx="169.4" cy="474.4" r="0.32" fill="#ffe082" fill-opacity="0.56"/><circle cx="319.7" cy="419.6" r="0.65" fill="#ffd54f" fill-opacity="0.60"/><circle cx="48.3" cy="143.5" r="1.71" fill="#ffe082" fill-opacity="0.49"/><circle cx="220.7" cy="350.4" r="1.63" fill="#ffb300" fill-opacity="0.53"/><circle cx="131.1" cy="255.1" r="1.10" fill="#ffb300" fill-opacity="0.46"/><circle cx="74.4" cy="402.5" r="1.93" fill="#ffd54f" fill-opacity="0.47"/><circle cx="386.5" cy="392.4" r="0.80" fill="#ffb300" fill-opacity="0.58"/><circle cx="152.4" cy="278.0" r="0.98" fill="#ffe082" fill-opacity="0.52"/><circle cx="433.7" cy="55.5" r="0.83" fill="#ffe082" fill-opacity="0.57"/><circle cx="217.0" cy="79.5" r="1.75" fill="#ffb300" fill-opacity="0.55"/><circle cx="389.8" cy="401.4" r="1.21" fill="#ffb300" fill-opacity="0.48"/><circle cx="508.7" cy="157.8" r="1.55" fill="#ffb300" fill-opacity="0.54"/><circle cx="416.5" cy="171.4" r="0.79" fill="#ffe082" fill-opacity="0.54"/><circle cx="0.2" cy="48.3" r="0.58" fill="#ffd54f" fill-opacity="0.53"/><circle cx="467.3" cy="223.5" r="1.84" fill="#ffd54f" fill-opacity="0.59"/><circle cx="126.8" cy="19.1" r="0.83" fill="#ffe082" fill-opacity="0.54"/><circle cx="273.0" cy="36.3" r="0.76" fill="#ffb300" fill-opacity="0.57"/><circle cx="317.9" cy="340.0" r="0.38" fill="#ffb300" fill-opacity="0.55"/><circle cx="219.9" cy="183.1" r="1.78" fill="#ffe082" fill-opacity="0.52"/><circle cx="77.3" cy="194.1" r="1.71" fill="#ffb300" fill-opacity="0.58"/><circle cx="318.3" cy="350.0" r="0.14" fill="#ffd54f" fill-opacity="0.52"/><circle cx="466.5" cy="54.3" r="0.53" fill="#ffb300" fill-opacity="0.49"/><circle cx="139.9" cy="21.1" r="0.57" fill="#ffe082" fill-opacity="0.47"/><circle cx="113.0" cy="204.2" r="1.47" fill="#ffd54f" fill-opacity="0.50"/><circle cx="302.2" cy="450.6" r="0.61" fill="#ffe082" fill-opacity="0.56"/><circle cx="489.1" cy="90.1" r="0.37" fill="#ffd54f" fill-opacity="0.57"/><circle cx="114.4" cy="109.5" r="0.90" fill="#ffb300" fill-opacity="0.56"/><circle cx="430.0" cy="378.4" r="1.92" fill="#ffd54f" fill-opacity="0.57"/><circle cx="88.5" cy="19.4" r="1.67" fill="#ffb300" fill-opacity="0.46"/><circle cx="433.5" cy="331.0" r="1.18" fill="#ffe082" fill-opacity="0.50"/><circle cx="353.5" cy="47.2" r="1.19" fill="#ffe082" fill-opacity="0.49"/><circle cx="380.1" cy="491.9" r="1.00" fill="#ffe082" fill-opacity="0.50"/><path d="M364.00 256.00 L378.12 260.80 L390.62 266.59 L400.21 273.07 L405.88 279.74 L407.04 286.04 L403.56 291.43 L395.76 295.42 L384.43 297.73 L370.66 298.30 L355.78 297.33 L341.17 295.26 L328.14 292.76 L317.76 290.59 L310.78 289.57 L307.55 290.45 L307.98 293.77 L311.59 299.82 L317.56 308.58 L324.87 319.66 L332.37 332.37 L338.96 345.75 L343.70 358.68 L345.90 370.04 L345.20 378.77 L341.56 384.05 L335.29 385.39 L326.96 382.70 L317.31 376.32 L307.17 366.99 L297.33 355.78 L288.46 343.99 L281.02 333.00 L275.21 324.13 L271.00 318.48 L268.10 316.81 L266.05 319.46 L264.32 326.29 L262.35 336.71 L259.68 349.71 L256.00 364.00 L251.20 378.12 L245.41 390.62 L238.93 400.21 L232.26 405.88 L225.96 407.04 L220.57 403.56 L216.58 395.76 L214.27 384.43 L213.70 370.66 L214.67 355.78 L216.74 341.17 L219.24 328.14 L221.41 317.76 L222.43 310.78 L221.55 307.55 L218.23 307.98 L212.18 311.59 L203.42 317.56 L192.34 324.87 L179.63 332.37 L166.25 338.96 L153.32 343.70 L141.96 345.90 L133.23 345.20 L127.95 341.56 L126.61 335.29 L129.30 326.96 L135.68 317.31 L145.01 307.17 L156.22 297.33 L168.01 288.46 L179.00 281.02 L187.87 275.21 L193.52 271.00 L195.19 268.10 L192.54 266.05 L185.71 264.32 L175.29 262.35 L162.29 259.68 L148.00 256.00 L133.88 251.20 L121.38 245.41 L111.79 238.93 L106.12 232.26 L104.96 225.96 L108.44 220.57 L116.24 216.58 L127.57 214.27 L141.34 213.70 L156.22 214.67 L170.83 216.74 L183.86 219.24 L194.24 221.41 L201.22 222.43 L204.45 221.55 L204.02 218.23 L200.41 212.18 L194.44 203.42 L187.13 192.34 L179.63 179.63 L173.04 166.25 L168.30 153.32 L166.10 141.96 L166.80 133.23 L170.44 127.95 L176.71 126.61 L185.04 129.30 L194.69 135.68 L204.83 145.01 L214.67 156.22 L223.54 168.01 L230.98 179.00 L236.79 187.87 L241.00 193.52 L243.90 195.19 L245.95 192.54 L247.68 185.71 L249.65 175.29 L252.32 162.29 L256.00 148.00 L260.80 133.88 L266.59 121.38 L273.07 111.79 L279.74 106.12 L286.04 104.96 L291.43 108.44 L295.42 116.24 L297.73 127.57 L298.30 141.34 L297.33 156.22 L295.26 170.83 L292.76 183.86 L290.59 194.24 L289.57 201.22 L290.45 204.45 L293.77 204.02 L299.82 200.41 L308.58 194.44 L319.66 187.13 L332.37 179.63 L345.75 173.04 L358.68 168.30 L370.04 166.10 L378.77 166.80 L384.05 170.44 L385.39 176.71 L382.70 185.04 L376.32 194.69 L366.99 204.83 L355.78 214.67 L343.99 223.54 L333.00 230.98 L324.13 236.79 L318.48 241.00 L316.81 243.90 L319.46 245.95 L326.29 247.68 L336.71 249.65 L349.71 252.32 L364.00 256.00" fill="none" stroke="hsl(45, 90%, 60%)" stroke-width="1.4" stroke-linecap="round" stroke-linejoin="round" opacity="0.95"/><path d="M264.00 256.00 L265.17 257.95 L265.83 260.37 L265.82 263.13 L265.04 266.04 L263.44 268.89 L261.03 271.47 L257.84 273.55 L254.01 274.92 L249.70 275.40 L245.11 274.86 L240.51 273.21 L236.15 270.42 L232.33 266.54 L229.31 261.67 L227.33 256.00 L226.61 249.75 L227.29 243.22 L229.46 236.72 L233.13 230.60 L238.22 225.21 L244.59 220.87 L252.00 217.90 L260.15 216.53 L268.69 216.94 L277.22 219.24 L285.32 223.43 L292.57 229.43 L298.55 237.06 L302.91 246.03 L305.33 256.00 L305.60 266.54 L303.59 277.19 L299.26 287.43 L292.70 296.76 L284.11 304.69 L273.80 310.78 L262.16 314.65 L249.69 316.02 L236.92 314.71 L224.44 310.66 L212.85 303.92 L202.71 294.72 L194.57 283.35 L188.88 270.27 L186.00 256.00 L186.18 241.16 L189.53 226.41 L196.02 212.43 L205.47 199.88 L217.56 189.41 L231.81 181.56 L247.67 176.79 L264.47 175.42 L281.46 177.63 L297.89 183.45 L312.98 192.72 L326.01 205.14 L336.31 220.24 L343.34 237.44 L346.67 256.00 L346.03 275.14 L341.35 294.00 L332.69 311.72 L320.36 327.47 L304.78 340.49 L286.57 350.09 L266.49 355.76 L245.37 357.13 L224.15 354.02 L203.78 346.45 L185.19 334.64 L169.27 319.01 L156.81 300.16 L148.45 278.86 L144.67 256.00 L145.75 232.57 L151.77 209.60 L162.59 188.13 L177.82 169.17 L196.89 153.62 L219.04 142.25 L243.35 135.68 L268.79 134.31 L294.24 138.32 L318.56 147.65 L340.64 162.00 L359.45 180.84 L374.07 203.43 L383.77 228.84 L388.00 256.00 L386.46 283.73 L379.11 310.81 L366.13 336.02 L348.01 358.19 L325.44 376.28 L299.34 389.40 L270.81 396.87 L241.05 398.24 L211.38 393.33 L183.11 382.25 L157.53 365.36 L135.83 343.31 L119.05 316.97 L108.02 287.45 L103.33 256.00 L105.32 223.97 L114.01 192.78 L129.15 163.84 L150.16 138.45 L176.22 117.82 L206.27 102.94 L239.03 94.58 L273.11 93.21 L307.01 99.01 L339.22 111.85 L368.29 131.28 L392.89 156.55 L411.83 186.62 L424.20 220.25 L429.33 256.00 L426.89 292.32 L416.87 327.62 L399.57 360.31 L375.67 388.91 L346.11 412.08 L312.12 428.71 L275.13 437.98 L236.73 439.35 L198.61 432.64 L162.44 418.04 L129.88 396.07 L102.39 367.60 L81.29 333.79 L67.59 296.05 L62.00 256.00 L64.89 215.38 L76.25 175.97 L95.71 139.54 L122.50 107.73 L155.56 82.03 L193.50 63.63 L234.71 53.47 L277.43 52.10 L319.78 59.70 L359.89 76.06 L395.95 100.57 L426.33 132.25 L449.59 169.81 L464.63 211.65 L470.67 256.00 L467.32 300.92 L454.63 344.43 L433.01 384.61 L403.33 419.62 L366.78 447.87 L324.89 468.02 L279.45 479.08 L232.41 480.45 L185.83 471.95 L141.78 453.84 L102.22 426.79 L68.96 391.90 L43.53 350.60 L27.16 304.64 L20.67 256.00 L24.46 206.78 L38.49 159.16 L62.27 115.25 L94.84 77.02 L134.89 46.23 L180.72 24.32 L230.39 12.36 L281.75 10.99 L332.55 20.39 L380.56 40.26 L423.61 69.85 L459.76 107.96 L487.35 153.00 L505.06 203.06 L512.00 256.00" fill="none" stroke="rgba(180,180,180,0.5)" stroke-width="1.2" stroke-linecap="round" stroke-linejoin="round" opacity="0.7"/><g stroke="rgba(180,180,180,0.5)" stroke-width="1.6" fill="none" opacity="0.95"><circle cx="256" cy="256" r="18" /><circle cx="256" cy="256" r="30" /><circle cx="256" cy="256" r="42" /><circle cx="256" cy="256" r="54" /><circle cx="256" cy="256" r="66" /><circle cx="256" cy="256" r="78" /></g><g fill="none" stroke="hsl(45, 90%, 60%)" opacity="0.95"><path d="M364.00 256.00 L378.12 260.80 L390.62 266.59 L400.21 273.07 L405.88 279.74 L407.04 286.04 L403.56 291.43 L395.76 295.42 L384.43 297.73 L370.66 298.30 L355.78 297.33 L341.17 295.26 L328.14 292.76 L317.76 290.59 L310.78 289.57 L307.55 290.45 L307.98 293.77 L311.59 299.82 L317.56 308.58 L324.87 319.66 L332.37 332.37 L338.96 345.75 L343.70 358.68 L345.90 370.04 L345.20 378.77 L341.56 384.05 L335.29 385.39 L326.96 382.70 L317.31 376.32 L307.17 366.99 L297.33 355.78 L288.46 343.99 L281.02 333.00 L275.21 324.13 L271.00 318.48 L268.10 316.81 L266.05 319.46 L264.32 326.29 L262.35 336.71 L259.68 349.71 L256.00 364.00 L251.20 378.12 L245.41 390.62 L238.93 400.21 L232.26 405.88 L225.96 407.04 L220.57 403.56 L216.58 395.76 L214.27 384.43 L213.70 370.66 L214.67 355.78 L216.74 341.17 L219.24 328.14 L221.41 317.76 L222.43 310.78 L221.55 307.55 L218.23 307.98 L212.18 311.59 L203.42 317.56 L192.34 324.87 L179.63 332.37 L166.25 338.96 L153.32 343.70 L141.96 345.90 L133.23 345.20 L127.95 341.56 L126.61 335.29 L129.30 326.96 L135.68 317.31 L145.01 307.17 L156.22 297.33 L168.01 288.46 L179.00 281.02 L187.87 275.21 L193.52 271.00 L195.19 268.10 L192.54 266.05 L185.71 264.32 L175.29 262.35 L162.29 259.68 L148.00 256.00 L133.88 251.20 L121.38 245.41 L111.79 238.93 L106.12 232.26 L104.96 225.96 L108.44 220.57 L116.24 216.58 L127.57 214.27 L141.34 213.70 L156.22 214.67 L170.83 216.74 L183.86 219.24 L194.24 221.41 L201.22 222.43 L204.45 221.55 L204.02 218.23 L200.41 212.18 L194.44 203.42 L187.13 192.34 L179.63 179.63 L173.04 166.25 L168.30 153.32 L166.10 141.96 L166.80 133.23 L170.44 127.95 L176.71 126.61 L185.04 129.30 L194.69 135.68 L204.83 145.01 L214.67 156.22 L223.54 168.01 L230.98 179.00 L236.79 187.87 L241.00 193.52 L243.90 195.19 L245.95 192.54 L247.68 185.71 L249.65 175.29 L252.32 162.29 L256.00 148.00 L260.80 133.88 L266.59 121.38 L273.07 111.79 L279.74 106.12 L286.04 104.96 L291.43 108.44 L295.42 116.24 L297.73 127.57 L298.30 141.34 L297.33 156.22 L295.26 170.83 L292.76 183.86 L290.59 194.24 L289.57 201.22 L290.45 204.45 L293.77 204.02 L299.82 200.41 L308.58 194.44 L319.66 187.13 L332.37 179.63 L345.75 173.04 L358.68 168.30 L370.04 166.10 L378.77 166.80 L384.05 170.44 L385.39 176.71 L382.70 185.04 L376.32 194.69 L366.99 204.83 L355.78 214.67 L343.99 223.54 L333.00 230.98 L324.13 236.79 L318.48 241.00 L316.81 243.90 L319.46 245.95 L326.29 247.68 L336.71 249.65 L349.71 252.32 L364.00 256.00" stroke-width="2" stroke-linecap="round" stroke-linejoin="round"/><path d="M364.00 256.00 L378.12 260.80 L390.62 266.59 L400.21 273.07 L405.88 279.74 L407.04 286.04 L403.56 291.43 L395.76 295.42 L384.43 297.73 L370.66 298.30 L355.78 297.33 L341.17 295.26 L328.14 292.76 L317.76 290.59 L310.78 289.57 L307.55 290.45 L307.98 293.77 L311.59 299.82 L317.56 308.58 L324.87 319.66 L332.37 332.37 L338.96 345.75 L343.70 358.68 L345.90 370.04 L345.20 378.77 L341.56 384.05 L335.29 385.39 L326.96 382.70 L317.31 376.32 L307.17 366.99 L297.33 355.78 L288.46 343.99 L281.02 333.00 L275.21 324.13 L271.00 318.48 L268.10 316.81 L266.05 319.46 L264.32 326.29 L262.35 336.71 L259.68 349.71 L256.00 364.00 L251.20 378.12 L245.41 390.62 L238.93 400.21 L232.26 405.88 L225.96 407.04 L220.57 403.56 L216.58 395.76 L214.27 384.43 L213.70 370.66 L214.67 355.78 L216.74 341.17 L219.24 328.14 L221.41 317.76 L222.43 310.78 L221.55 307.55 L218.23 307.98 L212.18 311.59 L203.42 317.56 L192.34 324.87 L179.63 332.37 L166.25 338.96 L153.32 343.70 L141.96 345.90 L133.23 345.20 L127.95 341.56 L126.61 335.29 L129.30 326.96 L135.68 317.31 L145.01 307.17 L156.22 297.33 L168.01 288.46 L179.00 281.02 L187.87 275.21 L193.52 271.00 L195.19 268.10 L192.54 266.05 L185.71 264.32 L175.29 262.35 L162.29 259.68 L148.00 256.00 L133.88 251.20 L121.38 245.41 L111.79 238.93 L106.12 232.26 L104.96 225.96 L108.44 220.57 L116.24 216.58 L127.57 214.27 L141.34 213.70 L156.22 214.67 L170.83 216.74 L183.86 219.24 L194.24 221.41 L201.22 222.43 L204.45 221.55 L204.02 218.23 L200.41 212.18 L194.44 203.42 L187.13 192.34 L179.63 179.63 L173.04 166.25 L168.30 153.32 L166.10 141.96 L166.80 133.23 L170.44 127.95 L176.71 126.61 L185.04 129.30 L194.69 135.68 L204.83 145.01 L214.67 156.22 L223.54 168.01 L230.98 179.00 L236.79 187.87 L241.00 193.52 L243.90 195.19 L245.95 192.54 L247.68 185.71 L249.65 175.29 L252.32 162.29 L256.00 148.00 L260.80 133.88 L266.59 121.38 L273.07 111.79 L279.74 106.12 L286.04 104.96 L291.43 108.44 L295.42 116.24 L297.73 127.57 L298.30 141.34 L297.33 156.22 L295.26 170.83 L292.76 183.86 L290.59 194.24 L289.57 201.22 L290.45 204.45 L293.77 204.02 L299.82 200.41 L308.58 194.44 L319.66 187.13 L332.37 179.63 L345.75 173.04 L358.68 168.30 L370.04 166.10 L378.77 166.80 L384.05 170.44 L385.39 176.71 L382.70 185.04 L376.32 194.69 L366.99 204.83 L355.78 214.67 L343.99 223.54 L333.00 230.98 L324.13 236.79 L318.48 241.00 L316.81 243.90 L319.46 245.95 L326.29 247.68 L336.71 249.65 L349.71 252.32 L364.00 256.00" stroke-width="3.6" stroke-linecap="round" stroke-linejoin="round"/><path d="M364.00 256.00 L378.12 260.80 L390.62 266.59 L400.21 273.07 L405.88 279.74 L407.04 286.04 L403.56 291.43 L395.76 295.42 L384.43 297.73 L370.66 298.30 L355.78 297.33 L341.17 295.26 L328.14 292.76 L317.76 290.59 L310.78 289.57 L307.55 290.45 L307.98 293.77 L311.59 299.82 L317.56 308.58 L324.87 319.66 L332.37 332.37 L338.96 345.75 L343.70 358.68 L345.90 370.04 L345.20 378.77 L341.56 384.05 L335.29 385.39 L326.96 382.70 L317.31 376.32 L307.17 366.99 L297.33 355.78 L288.46 343.99 L281.02 333.00 L275.21 324.13 L271.00 318.48 L268.10 316.81 L266.05 319.46 L264.32 326.29 L262.35 336.71 L259.68 349.71 L256.00 364.00 L251.20 378.12 L245.41 390.62 L238.93 400.21 L232.26 405.88 L225.96 407.04 L220.57 403.56 L216.58 395.76 L214.27 384.43 L213.70 370.66 L214.67 355.78 L216.74 341.17 L219.24 328.14 L221.41 317.76 L222.43 310.78 L221.55 307.55 L218.23 307.98 L212.18 311.59 L203.42 317.56 L192.34 324.87 L179.63 332.37 L166.25 338.96 L153.32 343.70 L141.96 345.90 L133.23 345.20 L127.95 341.56 L126.61 335.29 L129.30 326.96 L135.68 317.31 L145.01 307.17 L156.22 297.33 L168.01 288.46 L179.00 281.02 L187.87 275.21 L193.52 271.00 L195.19 268.10 L192.54 266.05 L185.71 264.32 L175.29 262.35 L162.29 259.68 L148.00 256.00 L133.88 251.20 L121.38 245.41 L111.79 238.93 L106.12 232.26 L104.96 225.96 L108.44 220.57 L116.24 216.58 L127.57 214.27 L141.34 213.70 L156.22 214.67 L170.83 216.74 L183.86 219.24 L194.24 221.41 L201.22 222.43 L204.45 221.55 L204.02 218.23 L200.41 212.18 L194.44 203.42 L187.13 192.34 L179.63 179.63 L173.04 166.25 L168.30 153.32 L166.10 141.96 L166.80 133.23 L170.44 127.95 L176.71 126.61 L185.04 129.30 L194.69 135.68 L204.83 145.01 L214.67 156.22 L223.54 168.01 L230.98 179.00 L236.79 187.87 L241.00 193.52 L243.90 195.19 L245.95 192.54 L247.68 185.71 L249.65 175.29 L252.32 162.29 L256.00 148.00 L260.80 133.88 L266.59 121.38 L273.07 111.79 L279.74 106.12 L286.04 104.96 L291.43 108.44 L295.42 116.24 L297.73 127.57 L298.30 141.34 L297.33 156.22 L295.26 170.83 L292.76 183.86 L290.59 194.24 L289.57 201.22 L290.45 204.45 L293.77 204.02 L299.82 200.41 L308.58 194.44 L319.66 187.13 L332.37 179.63 L345.75 173.04 L358.68 168.30 L370.04 166.10 L378.77 166.80 L384.05 170.44 L385.39 176.71 L382.70 185.04 L376.32 194.69 L366.99 204.83 L355.78 214.67 L343.99 223.54 L333.00 230.98 L324.13 236.79 L318.48 241.00 L316.81 243.90 L319.46 245.95 L326.29 247.68 L336.71 249.65 L349.71 252.32 L364.00 256.00" stroke-width="5.2" stroke-linecap="round" stroke-linejoin="round"/></g><circle cx="256" cy="256" r="18" fill="rgba(255, 230, 150, 0.12)"/><circle cx="256" cy="256" r="9" fill="hsl(186 80% 60%)"/>
  </svg>